<svg width="13" height="15" viewBox="0 0 13 15" fill="none" xmlns="http://www.w3.org/2000/svg">
<path d="M7.41016 15H2.1875C0.981277 15 0 14.0187 0 12.8125V5.40234C0 4.19612 0.981277 3.21484 2.1875 3.21484H7.41016C8.61638 3.21484 9.59766 4.19612 9.59766 5.40234V12.8125C9.59766 14.0187 8.61638 15 7.41016 15ZM2.1875 4.30859C1.58444 4.30859 1.09375 4.79929 1.09375 5.40234V12.8125C1.09375 13.4156 1.58444 13.9062 2.1875 13.9062H7.41016C8.01321 13.9062 8.50391 13.4156 8.50391 12.8125V5.40234C8.50391 4.79929 8.01321 4.30859 7.41016 4.30859H2.1875ZM12.7852 10.4453V2.1875C12.7852 0.981277 11.8039 0 10.5977 0H4.52734C4.22528 0 3.98047 0.244812 3.98047 0.546875C3.98047 0.848938 4.22528 1.09375 4.52734 1.09375H10.5977C11.2007 1.09375 11.6914 1.58444 11.6914 2.1875V10.4453C11.6914 10.7474 11.9362 10.9922 12.2383 10.9922C12.5403 10.9922 12.7852 10.7474 12.7852 10.4453Z" fill="#0088C2"/>
</svg>
