<svg width="28" height="35" viewBox="0 0 28 35" fill="none" xmlns="http://www.w3.org/2000/svg">
<path d="M15.7479 14.8579C15.4997 14.6451 15.216 14.5033 14.8969 14.3969C14.5777 14.326 14.2231 14.2905 13.7976 14.2905H12.1664C11.8827 14.2905 11.7054 14.3614 11.5635 14.4678C11.4572 14.5742 11.3862 14.787 11.3862 15.0707V19.6451C11.3862 19.8579 11.3862 19.9997 11.4572 20.1416C11.4926 20.2834 11.5635 20.3543 11.6699 20.4253C11.7763 20.4962 11.9536 20.5316 12.2018 20.5316H13.833C14.1167 20.5316 14.365 20.4962 14.6132 20.4607C14.826 20.4253 15.0387 20.3543 15.2515 20.2834C15.4643 20.177 15.6416 20.0706 15.7834 19.9288C15.9962 19.716 16.1735 19.5033 16.3153 19.255C16.4572 19.0068 16.5636 18.7231 16.6345 18.404C16.7054 18.0848 16.7409 17.7657 16.7409 17.3756C16.7409 16.2763 16.4217 15.4253 15.7479 14.8579ZM14.826 19.255C14.7196 19.326 14.6132 19.3969 14.5068 19.4324C14.365 19.4678 14.2586 19.5033 14.1522 19.5033C14.0458 19.5033 13.8685 19.5033 13.6557 19.5033H12.6983V15.248H13.5494C13.9394 15.248 14.2586 15.2834 14.5423 15.3898C14.826 15.4607 15.0387 15.6735 15.216 15.9926C15.3933 16.3118 15.4997 16.7728 15.4997 17.3756C15.4643 18.2976 15.2515 18.9004 14.826 19.255Z" fill="#0088C2"/>
<path d="M27.0243 6.98582L26.9888 6.95036V6.91489L20.2512 0.177305L20.2158 0.141844C20.2158 0.141844 20.1803 0.141844 20.1803 0.106383C20.1803 0.106383 20.1448 0.106383 20.1448 0.070922C20.0385 0 19.9321 0 19.7902 0H3.08811C2.44981 0 1.84697 0.248227 1.42144 0.673759L1.38598 0.70922C0.960446 1.13475 0.676758 1.77305 0.676758 2.41135V32.5887C0.676758 33.2624 0.960446 33.8652 1.38598 34.2908C1.81151 34.7163 2.44981 35 3.08811 35H24.6839C25.3576 35 25.9604 34.7163 26.386 34.2908C26.8115 33.8652 27.0952 33.227 27.0952 32.5887V7.34043C27.0952 7.19858 27.0597 7.0922 27.0243 6.98582ZM20.464 2.55319L24.4711 6.56028H21.5278C21.2441 6.56028 20.9604 6.4539 20.7831 6.24114C20.6058 6.06383 20.464 5.78014 20.464 5.49645V2.55319ZM25.5704 32.5887C25.5704 32.8369 25.464 33.0496 25.2867 33.227C25.1094 33.4043 24.8966 33.5106 24.6484 33.5106H3.08811C2.83988 33.5106 2.62711 33.4043 2.44981 33.2624C2.2725 33.0851 2.20158 32.8723 2.20158 32.6241V2.37589C2.20158 2.12766 2.30796 1.91489 2.48527 1.73759L2.52073 1.70213C2.69803 1.56028 2.9108 1.4539 3.12357 1.4539H19.0101V5.46099C19.0101 6.17021 19.2938 6.80851 19.7902 7.30497C20.2512 7.76596 20.925 8.04965 21.6342 8.04965H25.5704V32.5887Z" fill="#0088C2"/>
<path d="M9.7547 14.7872C9.5774 14.6099 9.36463 14.5035 9.08094 14.4326C8.83272 14.3616 8.44265 14.3262 7.98165 14.3262H6.35045C6.06677 14.3262 5.854 14.3971 5.74762 14.5035C5.60577 14.6099 5.57031 14.8226 5.57031 15.1063V19.929C5.57031 20.1772 5.64123 20.3545 5.74762 20.4964C5.854 20.6382 6.0313 20.6737 6.20861 20.6737C6.38591 20.6737 6.52776 20.6028 6.6696 20.4609C6.77598 20.3191 6.84691 20.1418 6.84691 19.8935V18.1205H8.01711C8.79726 18.1205 9.36463 17.9432 9.7547 17.624C10.1448 17.3049 10.3575 16.8084 10.3575 16.1701C10.3575 15.8865 10.3221 15.6028 10.2157 15.3545C10.0738 15.1418 9.932 14.929 9.7547 14.7872ZM8.90364 16.773C8.79725 16.9148 8.65541 17.0212 8.44265 17.0921C8.22988 17.1631 7.98165 17.1985 7.69797 17.1985H6.84691V15.2836H7.69797C8.26534 15.2836 8.61995 15.39 8.83272 15.5673C9.01002 15.7446 9.08094 15.9574 9.08094 16.2411C9.04548 16.4538 9.01002 16.6311 8.90364 16.773Z" fill="#0088C2"/>
<path d="M18.621 14.2554C18.4082 14.2908 18.2664 14.3263 18.16 14.3972C18.0536 14.4327 17.9472 14.5391 17.9117 14.6454C17.8408 14.7518 17.8408 14.8937 17.8408 15.1064V19.8937C17.8408 20.1419 17.9117 20.3547 18.0181 20.461C18.1245 20.6029 18.3018 20.6384 18.4791 20.6384C18.6564 20.6384 18.7983 20.5674 18.9401 20.461C19.0465 20.3192 19.1174 20.1419 19.1174 19.8937V17.8369H21.2096C21.3869 17.8369 21.5288 17.8015 21.6351 17.6951C21.7415 17.6242 21.777 17.4823 21.777 17.3405C21.777 17.1986 21.7415 17.0923 21.6351 16.9859C21.5288 16.9149 21.3869 16.844 21.2096 16.844H19.1174V15.2483H21.5997C21.8124 15.2483 21.9543 15.2128 22.0607 15.1064C22.1671 15.0001 22.2025 14.8937 22.2025 14.7518C22.2025 14.61 22.1671 14.5036 22.0607 14.3972C21.9543 14.2908 21.8124 14.2554 21.5997 14.2554H18.621Z" fill="#0088C2"/>
</svg>
