<svg width="20" height="20" viewBox="0 0 20 20" fill="none" xmlns="http://www.w3.org/2000/svg">
<path d="M19.2179 0H0.781252C0.349732 0 0 0.349732 0 0.781252C0 2.95685 0.932619 5.03389 2.55875 6.47935L5.98024 9.52044C6.5735 10.0478 6.91377 10.8055 6.91377 11.5995V19.2179C6.91377 19.8404 7.60958 20.2137 8.12822 19.8678L12.7375 16.7951C12.9547 16.6501 13.0854 16.4063 13.0854 16.1451V11.5995C13.0854 10.8055 13.4256 10.0478 14.0189 9.52044L17.4402 6.47935C19.0664 5.03389 19.999 2.95685 19.999 0.781252C19.999 0.349732 19.6492 0 19.2179 0ZM16.4022 5.31144L12.9808 8.35268C12.0543 9.17635 11.5229 10.3597 11.5229 11.5993V15.727L8.47612 17.7581V11.5995C8.47612 10.3597 7.94466 9.17635 7.01814 8.35268L3.59681 5.3116C2.50031 4.33671 1.80039 3.00095 1.61301 1.56235H18.386C18.1986 3.00095 17.4988 4.33671 16.4022 5.31144Z" fill="white"/>
</svg>
