<svg width="25" height="20" viewBox="0 0 25 20" fill="inherit" xmlns="http://www.w3.org/2000/svg">
<path fill-rule="evenodd" clip-rule="evenodd" d="M24.2421 11.592C24.1256 11.7026 23.9711 11.7643 23.8105 11.7643C23.6499 11.7643 23.4954 11.7026 23.3789 11.592L21.9602 10.2245C21.968 10.3456 21.9791 10.4655 21.9791 10.5877C21.9306 13.1307 20.8745 15.5504 19.0428 17.315C17.2111 19.0796 14.7537 20.0448 12.2107 19.9984C10.0744 20.0232 7.98974 19.3422 6.28011 18.061C4.57048 16.7798 3.33154 14.9702 2.75556 12.9129C2.85392 12.93 2.95348 12.9393 3.0533 12.9406C3.37085 12.9392 3.68279 12.8571 3.95979 12.7018C4.47978 14.482 5.56737 16.0434 7.05689 17.1483C8.54641 18.2531 10.3562 18.8408 12.2107 18.8219C14.4351 18.86 16.5839 18.0147 18.1861 16.4712C19.7883 14.9277 20.7132 12.812 20.7582 10.5877C20.7582 10.4766 20.7404 10.3733 20.7349 10.2655L19.3584 11.592C19.2418 11.7027 19.0871 11.7645 18.9263 11.7645C18.7655 11.7645 18.6108 11.7027 18.4941 11.592C18.4377 11.5383 18.3929 11.4738 18.3622 11.4022C18.3315 11.3307 18.3157 11.2537 18.3157 11.1759C18.3157 11.0981 18.3315 11.0211 18.3622 10.9496C18.3929 10.8781 18.4377 10.8136 18.4941 10.7599L20.9382 8.40808C21.0546 8.29742 21.2091 8.23571 21.3698 8.23571C21.5304 8.23571 21.6849 8.29742 21.8013 8.40808L24.2454 10.7599C24.3017 10.8137 24.3465 10.8784 24.377 10.95C24.4074 11.0217 24.423 11.0988 24.4227 11.1767C24.4223 11.2545 24.4062 11.3315 24.3751 11.4029C24.3441 11.4743 24.2988 11.5386 24.2421 11.592ZM20.4649 7.29823C19.9449 5.51806 18.8573 3.95665 17.3678 2.85179C15.8783 1.74694 14.0685 1.15922 12.214 1.17814C9.98993 1.14005 7.84143 1.98522 6.23943 3.52849C4.63742 5.07177 3.71258 7.18721 3.66762 9.4112C3.66762 9.52229 3.68542 9.62562 3.69098 9.73449L5.0674 8.40808C5.18386 8.29742 5.33835 8.23571 5.49899 8.23571C5.65963 8.23571 5.81415 8.29742 5.93061 8.40808C5.98723 8.46146 6.03233 8.5258 6.06317 8.59725C6.094 8.6687 6.10992 8.7457 6.10992 8.82352C6.10992 8.90134 6.094 8.97834 6.06317 9.04979C6.03233 9.12124 5.98723 9.18565 5.93061 9.23904L3.48654 11.592C3.37009 11.7026 3.2156 11.7643 3.05496 11.7643C2.89432 11.7643 2.73979 11.7026 2.62334 11.592L0.179313 9.23904C0.122689 9.18565 0.0775878 9.12124 0.0467521 9.04979C0.0159165 8.97834 0 8.90134 0 8.82352C0 8.7457 0.0159165 8.6687 0.0467521 8.59725C0.0775878 8.5258 0.122689 8.46146 0.179313 8.40808C0.295765 8.29742 0.450256 8.23571 0.610897 8.23571C0.771537 8.23571 0.926063 8.29742 1.04252 8.40808L2.46115 9.7745C2.45226 9.65452 2.44227 9.53451 2.44227 9.4112C2.49043 6.86822 3.54652 4.44849 5.37833 2.68397C7.21013 0.919457 9.66769 -0.0453551 12.2107 0.00163972C14.347 -0.0230262 16.4318 0.658064 18.1416 1.93919C19.8514 3.22032 21.0906 5.02986 21.667 7.08715C21.5682 7.07009 21.4683 7.06085 21.3681 7.05942C21.0506 7.06095 20.7386 7.1431 20.4616 7.29823H20.4649Z" fill="inherit"/>
</svg>
