<svg width="22" height="22" viewBox="0 0 22 22" fill="inherit" xmlns="http://www.w3.org/2000/svg">
<path d="M18.2752 11.0845C17.9882 11.0845 17.7555 11.3191 17.7555 11.6086V19.9517H13.5984V15.3975C13.5984 13.9523 12.4327 12.7766 11 12.7766C9.56723 12.7766 8.40152 13.9524 8.40152 15.3975V19.9517H4.24437V11.6087C4.24437 11.3192 4.01168 11.0845 3.72473 11.0845C3.43777 11.0845 3.20508 11.3192 3.20508 11.6087V20.4759C3.20508 20.7654 3.43777 21 3.72473 21H8.92117C9.19445 21 9.41809 20.7871 9.43879 20.5167C9.44004 20.5045 9.44082 20.4911 9.44082 20.4759V15.3975C9.44082 14.5304 10.1402 13.8249 11 13.8249C11.8597 13.8249 12.5591 14.5304 12.5591 15.3975V20.4759C12.5591 20.491 12.5599 20.5041 12.5611 20.5162C12.5816 20.7868 12.8053 21 13.0787 21H18.2752C18.5622 21 18.7948 20.7654 18.7948 20.4759V11.6087C18.7948 11.3191 18.5621 11.0845 18.2752 11.0845Z" stroke="inherit"/>
<path d="M20.7873 8.10262L11.307 1.10124C11.1242 0.966253 10.8758 0.966253 10.6931 1.10124L1.21272 8.10262C0.981155 8.27366 0.930843 8.60163 1.10041 8.8352C1.26998 9.06876 1.59518 9.11943 1.8267 8.94847L11 2.17377L20.1733 8.94843C20.2658 9.01679 20.3733 9.04969 20.4799 9.04969C20.6399 9.04969 20.7978 8.97542 20.8996 8.83516C21.0692 8.60163 21.0189 8.27366 20.7873 8.10262Z" stroke="inherit"/>
</svg>
