<svg width="17" height="20" viewBox="0 0 17 20" fill="inherit" xmlns="http://www.w3.org/2000/svg">
<path fill-rule="evenodd" clip-rule="evenodd" d="M12.3579 13.0746L17 18.7576L15.46 20L10.6767 14.1493C9.2053 14.8299 7.55043 15.0194 5.96086 14.6893C4.37129 14.3593 2.9329 13.5275 1.86189 12.3191C0.790889 11.1106 0.145151 9.5908 0.0217042 7.988C-0.101742 6.3852 0.303787 4.78602 1.17735 3.43088C2.05091 2.07573 3.34529 1.03782 4.86595 0.473137C6.38661 -0.0915444 8.05137 -0.152474 9.61001 0.299495C11.1687 0.751465 12.537 1.69192 13.5093 2.9795C14.4816 4.26709 15.0054 5.83222 15.0019 7.43967C15.0009 8.51257 14.7638 9.57235 14.3073 10.5454C13.8507 11.5185 13.1855 12.3816 12.3579 13.0746V13.0746ZM7.41314 1.96947C6.32338 1.98464 5.26248 2.31834 4.36381 2.9286C3.46515 3.53886 2.76884 4.39843 2.36243 5.39928C1.95602 6.40012 1.85765 7.49756 2.07969 8.55358C2.30173 9.6096 2.83426 10.5771 3.61034 11.3344C4.38642 12.0917 5.3714 12.605 6.44144 12.8098C7.51148 13.0146 8.61881 12.9017 9.62421 12.4854C10.6296 12.069 11.4882 11.3678 12.0921 10.4699C12.6959 9.5719 13.018 8.51731 13.0179 7.43867C13.0057 5.97787 12.4083 4.58154 11.357 3.55618C10.3056 2.53081 8.88614 1.96016 7.41012 1.96947H7.41314Z" fill="inherit"/>
</svg>
