<svg width="129" height="32" viewBox="0 0 129 32" fill="none" xmlns="http://www.w3.org/2000/svg">
<path fill-rule="evenodd" clip-rule="evenodd" d="M72.8321 19.9053C70.9207 19.9053 69.4706 18.5211 69.4706 16.2801C69.4706 14.0391 70.9207 12.655 72.8321 12.655C74.7436 12.655 76.1277 14.0391 76.1277 16.2801C76.1936 18.5211 74.7436 19.9053 72.8321 19.9053ZM57.0134 19.9053C55.102 19.9053 53.6519 18.5211 53.6519 16.2801C53.6519 14.0391 55.102 12.655 57.0134 12.655C58.9248 12.655 60.309 14.0391 60.309 16.2801C60.309 18.5211 58.8589 19.9053 57.0134 19.9053ZM57.0134 23.0031C61.1658 23.0031 64.1318 20.2348 64.1318 16.2801C64.1318 12.3254 61.0999 9.55716 57.0134 9.55716C52.861 9.55716 49.829 12.3254 49.829 16.2801C49.829 20.2348 52.861 23.0031 57.0134 23.0031ZM72.8321 23.0031C76.9845 23.0031 79.9506 20.2348 79.9506 16.2801C79.9506 12.3254 76.9186 9.55716 72.8321 9.55716C68.6797 9.55716 65.6478 12.3254 65.6478 16.2801C65.7137 20.2348 68.7456 23.0031 72.8321 23.0031ZM7.05252 19.9053C5.14109 19.9053 3.75695 18.5211 3.75695 16.2801C3.75695 14.0391 5.207 12.655 7.05252 12.655C8.89804 12.655 10.3481 14.0391 10.3481 16.2801C10.3481 18.5211 8.96395 19.9053 7.05252 19.9053ZM7.71164 9.55716C6.06385 9.55716 4.74562 10.0844 3.75695 11.139V4.81153H0V22.8054H3.62513V21.2894C4.54789 22.4099 5.99794 23.0031 7.71164 23.0031C11.3368 23.0031 14.171 20.3666 14.171 16.2801C14.171 12.1936 11.3368 9.55716 7.71164 9.55716ZM21.0257 19.5757L24.9145 15.8847C27.2873 13.6437 27.7487 12.1936 27.7487 10.5458C27.7487 7.44799 25.2441 5.53656 21.4212 5.53656C18.3893 5.53656 16.0165 6.78888 14.6982 8.70031L17.5324 10.5458C18.3234 9.42533 19.5757 8.83213 21.0257 8.83213C22.8054 8.83213 23.7281 9.62307 23.7281 10.9413C23.7281 11.7322 23.4645 12.655 21.9485 14.0391L15.4233 20.2348V22.8054H28.3419V19.5757H21.0257ZM37.8332 19.9053C35.9217 19.9053 34.5376 18.5211 34.5376 16.2801C34.5376 14.0391 35.9876 12.655 37.8332 12.655C39.7446 12.655 41.1287 14.0391 41.1287 16.2801C41.1287 18.5211 39.6787 19.9053 37.8332 19.9053ZM38.4923 9.55716C36.8445 9.55716 35.5263 10.0844 34.5376 11.139V4.81153H30.7806V22.8054H34.4058V21.2894C35.3285 22.4099 36.7786 23.0031 38.4923 23.0031C42.1174 23.0031 44.9516 20.3666 44.9516 16.2801C44.9516 12.1936 42.1174 9.55716 38.4923 9.55716ZM95.5057 22.8054H100.054L94.1215 15.2915L99.5263 9.75489H95.0443L89.5077 14.9619V4.81153H85.7508V22.8054H89.5077V19.5098L91.3532 17.7302L95.5057 22.8054ZM124.77 9.75489V16.2142C124.77 18.587 123.518 19.7075 121.738 19.7075C120.091 19.7075 119.102 18.7188 119.102 16.5438V9.75489H115.345V17.137C115.345 21.1576 117.652 23.0031 120.947 23.0031C122.529 23.0031 123.979 22.4099 124.968 21.2894V22.8713H128.527V9.75489H124.77ZM109.281 11.4686V9.75489H105.656V22.8054H109.413V16.6756C109.413 14.171 110.797 13.0505 112.906 13.0505C113.17 13.0505 113.434 13.0505 113.763 13.1164V9.62307C111.786 9.55716 110.204 10.2163 109.281 11.4686ZM102.492 22.8054C101.504 22.8054 100.647 22.0144 100.647 20.9598C100.647 19.9712 101.438 19.1143 102.492 19.1143C103.547 19.1143 104.338 19.9053 104.338 20.9598C104.272 22.0144 103.481 22.8054 102.492 22.8054ZM48.6426 0.131823L64.9228 7.5139L76.1936 2.37281V6.65705C76.1936 7.25026 76.7209 7.77755 77.3141 7.77755C77.9073 7.77755 78.4346 7.25026 78.4346 6.65705V1.38414L81.2029 0.131823C81.6643 -0.0659114 82.2575 0.131823 82.4552 0.593203C82.5211 0.725026 82.5211 0.856849 82.5211 0.988671V23.4645C82.5211 23.8599 82.2575 24.1895 81.9279 24.3213L65.3182 31.9011C65.0546 32.033 64.7909 32.033 64.5273 31.9011L47.8517 24.2554C47.5221 24.1236 47.3244 23.7281 47.3244 23.3986V0.92276C47.3244 0.395469 47.7199 0 48.2472 0C48.379 0 48.5108 0.0659114 48.6426 0.131823Z" fill="white"/>
</svg>
