<svg width="121" height="30" viewBox="0 0 121 30" fill="none" xmlns="http://www.w3.org/2000/svg">
<path fill-rule="evenodd" clip-rule="evenodd" d="M6.61174 18.6609C4.81977 18.6609 3.52214 17.3632 3.52214 15.2623C3.52214 13.1614 4.88156 11.8637 6.61174 11.8637C8.34191 11.8637 9.70134 13.1614 9.70134 15.2623C9.70134 17.3632 8.40371 18.6609 6.61174 18.6609ZM7.22966 8.95952C5.68486 8.95952 4.44902 9.45385 3.52214 10.4425V4.5105H0V21.3797H3.39856V19.9585C4.26365 21.009 5.62307 21.5651 7.22966 21.5651C10.6282 21.5651 13.2853 19.0934 13.2853 15.2623C13.2853 11.4312 10.6282 8.95952 7.22966 8.95952ZM19.7116 18.3519L23.3574 14.8915C25.5819 12.7906 26.0144 11.4312 26.0144 9.8864C26.0144 6.98218 23.6663 5.19021 20.0824 5.19021C17.24 5.19021 15.0154 6.36426 13.7796 8.15622L16.4367 9.8864C17.1782 8.83594 18.3522 8.27981 19.7116 8.27981C21.38 8.27981 22.2451 9.02131 22.2451 10.2572C22.2451 10.9987 21.9979 11.8637 20.5767 13.1614L14.4593 18.9698V21.3797H26.5705V18.3519H19.7116ZM35.4686 18.6609C33.6766 18.6609 32.379 17.3632 32.379 15.2623C32.379 13.1614 33.7384 11.8637 35.4686 11.8637C37.2606 11.8637 38.5582 13.1614 38.5582 15.2623C38.5582 17.3632 37.1988 18.6609 35.4686 18.6609ZM36.0865 8.95952C34.5417 8.95952 33.3059 9.45385 32.379 10.4425V4.5105H28.8568V21.3797H32.2554V19.9585C33.1205 21.009 34.4799 21.5651 36.0865 21.5651C39.4851 21.5651 42.1421 19.0934 42.1421 15.2623C42.1421 11.4312 39.4851 8.95952 36.0865 8.95952ZM89.5366 21.3797H93.8002L88.2389 14.3354L93.3059 9.1449H89.104L83.9135 14.0265V4.5105H80.3913V21.3797H83.9135V18.2901L85.6437 16.6217L89.5366 21.3797ZM116.972 9.1449V15.2005C116.972 17.425 115.798 18.4755 114.13 18.4755C112.585 18.4755 111.658 17.5486 111.658 15.5095V9.1449H108.136V16.0656C108.136 19.8349 110.299 21.5651 113.388 21.5651C114.871 21.5651 116.231 21.009 117.158 19.9585V21.4415H120.494V9.1449H116.972ZM102.451 10.7515V9.1449H99.0525V21.3797H102.575V15.6331C102.575 13.285 103.872 12.2345 105.85 12.2345C106.097 12.2345 106.344 12.2345 106.653 12.2963V9.02131C104.799 8.95952 103.316 9.57744 102.451 10.7515ZM96.0865 21.3797C95.1596 21.3797 94.3563 20.6382 94.3563 19.6495C94.3563 18.7226 95.0978 17.9194 96.0865 17.9194C97.0752 17.9194 97.8167 18.6609 97.8167 19.6495C97.7549 20.6382 97.0134 21.3797 96.0865 21.3797Z" fill="#20243C"/>
<path fill-rule="evenodd" clip-rule="evenodd" d="M60.8637 7.04428L45.6011 0.123584C45.4775 0.061792 45.3539 0 45.2303 0C44.736 0 44.3652 0.370752 44.3652 0.865088V21.9361C44.3652 22.2451 44.5506 22.6159 44.8596 22.7394L60.4929 29.9073C60.7401 30.0309 60.9873 30.0309 61.2344 29.9073L76.806 22.8012C77.115 22.6777 77.3621 22.3687 77.3621 21.9979V0.926879C77.3621 0.803296 77.3621 0.679712 77.3003 0.556128C77.115 0.123584 76.5588 -0.061792 76.1263 0.123584L73.531 1.29763V6.24099C73.531 6.79712 73.0367 7.29145 72.4806 7.29145C71.9244 7.29145 71.4301 6.79712 71.4301 6.24099V2.22451L60.8637 7.04428ZM53.4486 21.5654C57.3415 21.5654 60.1222 18.9701 60.1222 15.2626C60.1222 11.5551 57.2798 8.95984 53.4486 8.95984C49.5558 8.95984 46.7133 11.5551 46.7133 15.2626C46.7133 18.9701 49.5558 21.5654 53.4486 21.5654ZM50.2973 15.2626C50.2973 17.3635 51.6567 18.6612 53.4486 18.6612C55.1788 18.6612 56.5382 17.3635 56.5382 15.2626C56.5382 13.1617 55.2406 11.8641 53.4486 11.8641C51.6567 11.8641 50.2973 13.1617 50.2973 15.2626ZM74.9523 15.2626C74.9523 18.9701 72.1716 21.5654 68.2787 21.5654C64.4476 21.5654 61.6052 18.9701 61.5434 15.2626C61.5434 11.5551 64.3858 8.95984 68.2787 8.95984C72.1098 8.95984 74.9523 11.5551 74.9523 15.2626ZM68.2787 18.6612C66.4868 18.6612 65.1273 17.3635 65.1273 15.2626C65.1273 13.1617 66.4868 11.8641 68.2787 11.8641C70.0707 11.8641 71.3683 13.1617 71.3683 15.2626C71.4301 17.3635 70.0707 18.6612 68.2787 18.6612Z" fill="#0088C2"/>
</svg>
