<svg width="50" height="50" viewBox="0 0 50 50" fill="none" xmlns="http://www.w3.org/2000/svg">
<path d="M48.626 21.4199C48.1076 20.6371 47.3217 20.0977 46.4081 19.8932C46.9975 18.766 46.9735 17.3595 46.2227 16.2262C45.6887 15.4194 44.883 14.8983 44.006 14.7011C44.1624 14.4027 44.278 14.0808 44.347 13.7413C44.5385 12.7971 44.3516 11.8351 43.8195 11.0321C43.301 10.2489 42.5152 9.70952 41.6016 9.50543C42.191 8.37819 42.1669 6.97171 41.4162 5.83798C40.3187 4.18049 38.0764 3.72464 36.4186 4.82251L32.8289 7.19983C30.9155 6.22937 28.8803 5.54082 26.7681 5.14866C26.1006 4.1351 25.3243 3.19287 24.4553 2.35058L22.9702 0.911296C21.8826 -0.143087 20.1771 -0.301397 18.9144 0.535167C17.4206 1.52432 17.0101 3.54458 17.9993 5.03842C18.0382 5.09755 18.0763 5.15706 18.1141 5.21657C13.2462 6.20152 8.80967 8.78484 5.52597 12.5702C1.96266 16.6782 0 21.9394 0 27.3846C0 28.4283 0.0713349 29.4739 0.212479 30.4916C1.30005 38.4037 6.57044 45.2221 13.9664 48.2864C16.7091 49.4232 19.6194 50 22.6151 50C27.3594 50 31.9008 48.547 35.7487 45.7985C39.513 43.1091 42.3294 39.3978 43.8938 35.0658C44.04 34.6622 43.8305 34.2163 43.4269 34.0706C43.023 33.9249 42.5774 34.1339 42.4317 34.5379C40.9748 38.5719 38.3515 42.028 34.8446 44.5332C31.2622 47.0924 27.0333 48.4451 22.6151 48.4451C20.3308 48.4451 18.1004 48.0846 15.9657 47.3736L22.2912 43.1847C22.2916 43.1843 22.292 43.1843 22.2923 43.1839C22.2927 43.1839 22.2927 43.1835 22.2931 43.1831L27.5501 39.7018H27.5505C28.0224 39.389 28.3447 38.9114 28.4577 38.3564C28.5706 37.8014 28.4607 37.2352 28.1479 36.7634L28.0785 36.6581L29.0997 35.9817C29.8283 35.4992 30.7045 35.31 31.5674 35.4484C32.8167 35.6491 34.0855 35.3744 35.1399 34.676L43.61 29.0668C43.5521 29.8015 43.4567 30.5321 43.3235 31.2504C43.245 31.6727 43.5238 32.0785 43.9461 32.1567C43.9938 32.1659 44.0419 32.1701 44.0888 32.1701C44.4561 32.1701 44.7827 31.9084 44.8521 31.5342C45.0676 30.3749 45.1916 29.1874 45.2237 27.9983L47.6105 26.4175C48.4135 25.8858 48.9617 25.0728 49.1532 24.1291C49.3451 23.1849 49.1578 22.2229 48.626 21.4199V21.4199ZM31.3195 8.19928L28.944 9.77246L28.4764 8.51247C28.281 7.9868 28.0571 7.47144 27.8092 6.96713C29.0142 7.27269 30.1876 7.68468 31.3195 8.19928ZM6.70052 13.5891C9.85642 9.95099 14.1552 7.50539 18.858 6.65738C19.6125 8.48538 19.7933 10.5278 19.3424 12.4744L17.4469 20.6634C17.149 20.3453 16.7622 20.1259 16.3265 20.0374C15.7711 19.9241 15.2054 20.0344 14.7335 20.3472L9.36433 23.9025C9.36394 23.9025 9.36394 23.9025 9.36356 23.9029C9.36356 23.9029 9.36318 23.9029 9.36318 23.9033L1.61934 29.0314C1.577 28.4851 1.55487 27.9346 1.55487 27.3846C1.55487 22.3141 3.38249 17.4145 6.70052 13.5891V13.5891ZM26.9341 38.0463C26.9039 38.1943 26.8177 38.3221 26.6915 38.4056H26.6918L22.0745 41.4631L13.5048 28.6827C13.2656 28.326 12.7827 28.231 12.426 28.4702C12.0697 28.7094 11.9743 29.192 12.2135 29.5486L20.7779 42.3218L14.1865 46.6869C7.63665 43.8221 2.94953 37.772 1.82266 30.7319L9.57566 25.6145L10.4679 26.9459C10.6182 27.1694 10.8639 27.2903 11.1145 27.2903C11.2633 27.2903 11.414 27.248 11.5467 27.1587C11.9034 26.9195 11.9988 26.4366 11.7596 26.0799L10.8734 24.7581L15.5922 21.6434C15.7177 21.5599 15.8684 21.5309 16.0164 21.561C16.1644 21.5912 16.2922 21.6774 16.3757 21.8033L26.8517 37.6221C26.9348 37.7476 26.9642 37.8982 26.9341 38.0463V38.0463ZM47.6296 23.8193C47.5205 24.3564 47.2088 24.8188 46.7518 25.1213L44.0232 26.9283C44.0224 26.9287 44.0216 26.9295 44.0205 26.9298L34.2812 33.3797C33.5526 33.8623 32.6763 34.0519 31.8135 33.913C30.5645 33.7128 29.2958 33.987 28.241 34.6855L27.2198 35.3619L18.6398 22.406L20.8576 12.8254C21.4287 10.3573 21.1277 7.75754 20.0398 5.49275C20.0298 5.4691 20.0192 5.44621 20.007 5.4237C19.7979 4.9957 19.5606 4.58027 19.2955 4.17973C18.7798 3.40077 18.9938 2.34753 19.7731 1.8314C20.4315 1.39538 21.3211 1.47778 21.888 2.02748L23.373 3.46714C24.9794 5.02469 26.2402 6.95645 27.0184 9.05377L27.8271 11.2323C27.8286 11.2365 27.8301 11.24 27.8317 11.2438C27.8336 11.2488 27.8359 11.2541 27.8378 11.2591C27.8435 11.2724 27.8488 11.2846 27.8546 11.2949C27.8702 11.3277 27.8874 11.3601 27.908 11.391C28.1452 11.7492 28.6274 11.8473 28.9852 11.61L37.2773 6.11912C38.2202 5.49466 39.4955 5.75368 40.12 6.69667C40.7444 7.63966 40.4854 8.91492 39.5424 9.53938L38.8226 10.0162C38.8226 10.0162 38.8222 10.0162 38.8218 10.0166L37.2162 11.0801C37.2139 11.0817 37.2124 11.0832 37.2101 11.0843C37.201 11.0908 37.1922 11.0969 37.1849 11.103C36.8531 11.3468 36.7672 11.8103 36.9973 12.1574C37.2341 12.5156 37.7167 12.6137 38.0749 12.3764L39.6817 11.3121C40.1383 11.0103 40.6849 10.9039 41.2217 11.013C41.7584 11.1221 42.2211 11.4338 42.5232 11.8908C42.8257 12.3474 42.9325 12.8948 42.8234 13.4315C42.7143 13.9686 42.4027 14.431 41.9457 14.7335L39.6195 16.2742C39.2613 16.5111 39.1632 16.9933 39.4005 17.3515C39.55 17.5773 39.7972 17.6998 40.0494 17.6998C40.1966 17.6998 40.3458 17.6578 40.4778 17.5705L40.8379 17.3321L42.0838 16.5069C43.0271 15.8825 44.302 16.1415 44.9265 17.0845C45.551 18.0279 45.2919 19.3027 44.3489 19.9276L43.187 20.697C43.1809 20.7008 43.1748 20.705 43.1687 20.7092L42.0227 21.468C41.6645 21.7048 41.5665 22.1874 41.8038 22.5456C41.9533 22.7714 42.2005 22.8939 42.4527 22.8939C42.5999 22.8939 42.7491 22.8519 42.881 22.7646L43.2412 22.5261C43.2412 22.5261 43.2412 22.5258 43.2415 22.5258L44.4874 21.701C44.944 21.3985 45.4911 21.2917 46.0282 21.4012C46.5653 21.5099 47.0276 21.822 47.3301 22.2786C47.6323 22.7352 47.7387 23.2826 47.6296 23.8193V23.8193Z" fill="#0088C2"/>
</svg>
