<svg width="41" height="40" viewBox="0 0 41 40" fill="none" xmlns="http://www.w3.org/2000/svg">
<path d="M16.681 2.6687C8.94935 2.6687 2.68164 8.93641 2.68164 16.6681C2.68164 24.3997 8.94935 30.6674 16.681 30.6674C24.4126 30.6674 30.6804 24.3997 30.6804 16.6681C30.6719 8.93991 24.4091 2.67712 16.681 2.6687ZM16.681 4.00197C20.7988 4.00522 24.6576 6.01213 27.0245 9.38173L25.3579 11.0483C24.9524 10.8029 24.4881 10.6716 24.014 10.6683C22.5413 10.6683 21.3475 11.8622 21.3475 13.3349C21.3498 13.8094 21.4804 14.2745 21.7254 14.6808L17.3603 19.046C16.5338 18.542 15.495 18.542 14.6684 19.046L11.6366 16.0141C11.8816 15.6078 12.0122 15.1427 12.0145 14.6682C12.0164 13.1984 10.8264 12.0054 9.35667 12.0036C8.14114 12.0021 7.07911 12.8243 6.77612 14.0015H4.3029C5.56509 8.17287 10.7173 4.01072 16.681 4.00197ZM25.3473 13.3349C25.3473 14.0713 24.7504 14.6682 24.014 14.6682C23.2776 14.6682 22.6807 14.0713 22.6807 13.3349C22.6807 12.5985 23.2776 12.0016 24.014 12.0016C24.7504 12.0016 25.3473 12.5985 25.3473 13.3349ZM17.3476 21.3345C17.3476 22.0709 16.7507 22.6678 16.0144 22.6678C15.278 22.6678 14.6811 22.0709 14.6811 21.3345C14.6811 20.5981 15.278 20.0012 16.0144 20.0012C16.7507 20.0012 17.3476 20.5981 17.3476 21.3345ZM10.6813 14.6682C10.6813 15.4045 10.0844 16.0014 9.348 16.0014C8.61162 16.0014 8.01473 15.4045 8.01473 14.6682C8.01473 13.9318 8.61162 13.3349 9.348 13.3349C10.0844 13.3349 10.6813 13.9318 10.6813 14.6682ZM22.8352 27.7431C20.9526 28.7883 18.8344 29.336 16.681 29.3341C9.69049 29.3388 4.01966 23.6758 4.01491 16.6853C4.01458 16.2342 4.03841 15.7833 4.08624 15.3347H6.77612C7.07919 16.5084 8.13581 17.33 9.348 17.3346C9.82256 17.3323 10.2876 17.2017 10.6939 16.9566L13.7258 19.9885C13.4807 20.3948 13.3502 20.8599 13.3478 21.3344C13.3478 22.8071 14.5417 24.001 16.0144 24.001C17.487 24.001 18.6809 22.8071 18.6809 21.3344C18.6786 20.8599 18.548 20.3948 18.3029 19.9885L22.6681 15.6234C23.0744 15.8684 23.5394 15.999 24.014 16.0013C25.4867 16.0013 26.6805 14.8075 26.6805 13.3348C26.6782 12.8602 26.5476 12.3952 26.3026 11.9889L27.7558 10.5363C31.1486 16.6466 28.9455 24.3504 22.8352 27.7431Z" fill="#0088C2"/>
<path d="M33.347 6.6685C34.5591 6.66392 35.6158 5.84237 35.9188 4.66859H40.0133V3.33532H35.9188C35.6158 2.16154 34.5591 1.34 33.347 1.33541C31.8743 1.33541 30.6804 2.52928 30.6804 4.00196C30.6827 4.47652 30.8133 4.94158 31.0584 5.3479L29.8871 6.51918C24.2828 -0.78224 13.8206 -2.15801 6.51918 3.44632C-0.78224 9.05064 -2.15801 19.5129 3.44632 26.8143C8.73641 33.7063 18.4336 35.3781 25.726 30.6554L27.7379 32.6673L28.6805 33.6099L34.0469 38.9764C35.4118 40.3412 37.6245 40.3412 38.9894 38.9764C40.3542 37.6115 40.3542 35.3988 38.9894 34.0339L33.6229 28.6675L32.6803 27.7249L30.6684 25.713C34.2398 20.2119 34.2398 13.1243 30.6684 7.62313L32.0017 6.28985C32.4077 6.53501 32.8726 6.66584 33.347 6.6685ZM33.347 2.66869C34.0833 2.66869 34.6802 3.26557 34.6802 4.00196C34.6802 4.73834 34.0833 5.33523 33.347 5.33523C32.6106 5.33523 32.0137 4.73834 32.0137 4.00196C32.0137 3.26557 32.6107 2.66869 33.347 2.66869ZM38.0467 34.9765C38.9005 35.8112 38.9161 37.1799 38.0815 38.0337C37.2469 38.8875 35.8781 38.9031 35.0243 38.0685C35.0125 38.0571 35.001 38.0455 34.9895 38.0337L29.6231 32.6673L32.6803 29.6101L38.0467 34.9765ZM31.7377 28.6675L28.6805 31.7247L26.8352 29.8794C26.9292 29.8074 27.0172 29.7281 27.1099 29.6541C27.2026 29.5801 27.3099 29.4915 27.4092 29.4081C27.5552 29.2855 27.6992 29.1615 27.8405 29.0341C27.9132 28.9675 27.9825 28.9008 28.0539 28.8342C28.3272 28.5782 28.5918 28.3135 28.8478 28.0402C28.9145 27.9689 28.9812 27.8995 29.0478 27.8269C29.1751 27.6855 29.2991 27.5415 29.4218 27.3956C29.5054 27.2969 29.5874 27.1971 29.6678 27.0962C29.7411 27.0042 29.8204 26.9162 29.8924 26.8222L31.7377 28.6675ZM29.1525 25.571C28.9425 25.8643 28.7258 26.1516 28.4972 26.4283C28.4305 26.5089 28.3592 26.5869 28.2905 26.6663C28.0865 26.9036 27.8759 27.1338 27.6585 27.3569C27.5639 27.4546 27.4676 27.5509 27.3699 27.6455C27.1477 27.8629 26.9175 28.0735 26.6793 28.2775C26.5999 28.3442 26.5219 28.4168 26.4413 28.4842C26.1646 28.7128 25.8773 28.9295 25.584 29.1395C18.683 34.0697 9.09181 32.472 4.16162 25.571C-0.768574 18.67 0.829103 9.07881 7.73012 4.14862C14.6311 -0.781573 24.2223 0.816021 29.1525 7.71712C32.9674 13.057 32.9674 20.2311 29.1525 25.571Z" fill="#0088C2"/>
</svg>
