<svg width="40" height="40" viewBox="0 0 40 40" fill="none" xmlns="http://www.w3.org/2000/svg">
<path d="M12.6248 18.2935L12.6248 18.2934L5.78187 12.2113C5.78186 12.2113 5.78185 12.2113 5.78184 12.2113C2.7431 9.51012 1 5.62808 1 1.5625C1 1.25175 1.25175 1 1.5625 1H38.4358C38.7461 1 38.998 1.25162 38.998 1.5625C38.998 5.6281 37.2548 9.51015 34.2161 12.2113L27.3734 18.2935L27.3734 18.2935C25.9734 19.5379 25.1707 21.3255 25.1707 23.1989V32.2901C25.1707 32.4779 25.0768 32.6536 24.9199 32.7583L15.7018 38.9034L15.7016 38.9036C15.3298 39.1515 14.8275 38.8833 14.8275 38.4358V23.1989C14.8275 21.3255 14.0249 19.538 12.6248 18.2935Z" stroke="#0088C2" stroke-width="2"/>
</svg>
