<svg width="17" height="17" viewBox="0 0 17 17" fill="none" xmlns="http://www.w3.org/2000/svg">
<path d="M16.2247 16.1575L16.2247 16.1576C16.2405 16.1346 16.2478 16.1115 16.2496 16.0906C16.2513 16.0698 16.2478 16.0476 16.2373 16.0253L16.2361 16.0227L14.3139 11.8814C14.2998 11.851 14.2711 11.8173 14.2239 11.7935C14.2237 11.7934 14.2235 11.7932 14.2232 11.7931L11.5305 10.4532C10.635 11.0294 9.57947 11.3371 8.49965 11.3371C7.42005 11.3371 6.36467 11.0295 5.46932 10.4536L2.77726 11.7931C2.777 11.7933 2.77674 11.7934 2.77648 11.7935C2.72937 11.8174 2.70068 11.851 2.68658 11.8814L0.764361 16.0227L0.762779 16.0261C0.752255 16.0485 0.748704 16.0707 0.750409 16.0915C0.752124 16.1124 0.759449 16.1354 0.775133 16.1584L0.777689 16.1622C0.792176 16.1837 0.815224 16.2058 0.847964 16.2228C0.880786 16.2398 0.920128 16.25 0.961984 16.25L16.2247 16.1575ZM16.2247 16.1575L16.2207 16.1635M16.2247 16.1575L16.2207 16.1635M16.2207 16.1635C16.2065 16.1846 16.1839 16.2064 16.1517 16.2232C16.1193 16.24 16.0804 16.25 16.0389 16.25H16.0385M16.2207 16.1635L16.0385 16.25M16.0385 16.25H0.962169H16.0385ZM11.2406 10.309L11.2407 10.3091L11.2406 10.309ZM5.43619 4.3269L5.43861 4.29687V4.26674C5.43861 2.75727 5.83104 1.92 6.32268 1.45076C6.82079 0.975329 7.55375 0.75 8.50025 0.75C9.44693 0.75 10.1798 0.975131 10.6779 1.45039C11.1694 1.91943 11.5619 2.75662 11.5619 4.26674V4.29687L11.5643 4.3269C11.6313 5.16012 11.3505 5.99149 10.7703 6.64098C10.2024 7.27675 9.39075 7.68842 8.50024 7.78019C7.60974 7.68842 6.79812 7.27675 6.23016 6.64098C5.64996 5.99149 5.36915 5.16012 5.43619 4.3269Z" stroke="white" stroke-width="1.5"/>
</svg>
